<?xml version="1.0" encoding="UTF-8" standalone="no"?>
<!-- Created with Inkscape (http://www.inkscape.org/) -->

<svg
   version="1.1"
   id="svg884"
   width="5000"
   height="5000"
   viewBox="0 0 5000 5000"
   xmlns="http://www.w3.org/2000/svg"
   xmlns:svg="http://www.w3.org/2000/svg">
  <defs
     id="defs888" />
  <g
     id="g890"
     transform="translate(7.6922307,-12.327683)">
    <path
       style="fill:#000000"
       d="M -7.6922307,2512.3278 V 12.327683 H 2492.3078 h 2500 v 2500.000117 2500 h -2500 H -7.6922307 Z M 2511.8078,4603.8199 c 48.8491,-6.3811 96.3266,-26.7533 135.5,-58.1418 11.8864,-9.5242 31.1783,-28.9546 40.7648,-41.0573 12.4975,-15.7779 18.9803,-26.2851 46.4555,-75.293 14.0297,-25.025 296.0677,-528.35 626.7511,-1118.5 330.6835,-590.15 601.5359,-1073.3189 601.8942,-1073.7086 0.3584,-0.3898 5.4837,0.8248 11.3895,2.699 41.3824,13.1327 87.2129,15.9376 130.3265,7.9762 74.1886,-13.6998 140.5426,-58.8151 179.6648,-122.1572 6.4985,-10.5218 361.9339,-644.6779 367.0567,-654.8906 43.3672,-86.456 36.3841,-190.9679 -18.1019,-270.9188 -18.4711,-27.104 -36.0759,-45.0627 -70.2012,-71.6125 -248.5805,-193.39868 -522.5717,-350.70958 -814.5,-467.64188 -346.3282,-138.72235 -712.1813,-218.83393 -1085.5,-237.69408 -81.78,-4.13155 -209.1844,-5.36416 -280,-2.70893 -224.0875,8.40213 -419.4984,33.10768 -626.5,79.20762 -471.1905,104.93569 -914.06373,309.66279 -1297.50003,599.79577 -32.9566,24.9372 -49.7246,38.0281 -60.5,47.2328 -67.7308,57.8583 -102.6693,146.6385 -92.4505,234.9212 3.3167,28.6538 13.4927,63.0317 26.1964,88.5 5.2524,10.53 360.4611,644.3848 367.5119,655.8094 39.0912,63.3403 105.4368,108.4509 179.6606,122.1572 34.6371,6.3961 71.8813,5.859 106.03219,-1.5291 4.9228,-1.065 9.2823,-1.5991 9.6877,-1.1869 0.4054,0.4122 281.15374,501.1494 623.88514,1112.7494 342.7314,611.6 625.3643,1115.6706 628.0731,1120.1568 19.2584,31.8949 53.0554,65.8755 86.4035,86.8727 28.5944,18.0042 67.8294,32.6444 101.6726,37.9383 24.0226,3.7577 52.4792,4.1396 76.3274,1.0243 z m -48.5,-139.1866 c -19.8421,-2.1224 -41.7105,-10.3589 -59.9848,-22.5924 -9.0157,-6.0355 -24.8399,-21.6265 -31.4317,-30.9684 -2.6216,-3.7154 -301.2498,-535.8318 -663.6181,-1182.481 -362.3684,-646.6492 -659.3026,-1175.8761 -659.8538,-1176.0598 -0.9415,-0.3139 -12.6055,8.888 -32.1116,25.3332 -27.33164,23.0429 -54.59243,33.4629 -87.54523,33.4629 -26.911,0 -53.3625,-8.4351 -75.383,-24.0388 -10.8828,-7.7115 -23.6729,-21.0088 -31.2301,-32.4684 -6.1397,-9.3102 -355.2588,-631.4424 -363.2635,-647.3377 -8.6962,-17.2683 -12.7199,-35.1899 -12.72,-56.6551 0,-22.1964 3.6679,-37.7732 13.6577,-58 10.1009,-20.452 21.1199,-32.7521 48.0482,-53.6347 241.2017,-187.0496 502.30623,-336.82808 782.43593,-448.83178 329.1969,-131.6222 676.0064,-207.7333 1032,-226.4837 62.0674,-3.2692 92.6008,-3.9849 170,-3.9849 77.3992,0 107.9326,0.7157 170,3.9849 646.8277,34.0688 1263.9456,258.92 1778.7977,648.11718 55.0576,41.6202 64.4971,49.9494 75.7157,66.8099 14.6556,22.0262 21.6005,45.2037 21.5808,72.0231 -0.016,21.5872 -3.9995,39.4332 -12.6262,56.5635 -3.7894,7.5248 -352.823,630.7485 -359.5136,641.9365 -33.4625,55.9559 -105.7313,77.8121 -165.4448,50.0353 -11.6064,-5.3989 -21.4472,-12.3781 -44.5249,-31.5775 -33.2202,-27.6376 -40.4456,-33.3649 -41.1799,-32.6421 -0.3824,0.3764 -298.8643,532.8093 -663.2931,1183.1843 -364.4289,650.375 -665.0272,1186.1 -667.9964,1190.5 -19.6412,29.1063 -52.6535,49.7998 -87.6436,54.939 -9.718,1.4273 -24.088,1.8061 -32.8717,0.8665 z m 107,-559.5567 c 50.875,-90.8604 92.5,-165.7299 92.5,-166.3768 0,-0.6468 -2.925,-3.5109 -6.5,-6.3645 -60.9513,-48.6525 -104.8155,-116.8187 -123.8764,-192.5075 -12.4076,-49.2693 -13.8477,-104.4907 -4.055,-155.5 27.5021,-143.2573 142.6075,-257.2892 286.1265,-283.458 25.3751,-4.6268 41.4533,-5.7871 72.3049,-5.2177 42.3784,0.782 72.5148,6.0236 110.3375,19.1908 7.3356,2.5538 13.4465,4.4951 13.5798,4.3141 1.5657,-2.1268 178.5827,-318.9831 178.5827,-319.6589 0,-0.5102 -1.4212,-1.5163 -3.1582,-2.2358 -5.5034,-2.2796 -28.9731,-18.409 -38.9061,-26.738 -37.3337,-31.305 -65.7757,-76.0142 -78.0018,-122.6144 -6.2359,-23.7685 -7.3949,-33.5767 -7.3949,-62.5821 0,-29.0054 1.159,-38.8136 7.3949,-62.5821 21.4667,-81.8212 87.4825,-148.3351 169.6268,-170.9067 22.6673,-6.2285 35.9181,-7.8899 63.4393,-7.9541 27.4224,-0.064 37.4812,1.0807 60.3598,6.8682 17.4198,4.4067 29.945,9.1267 48.4413,18.2547 8.4155,4.1532 15.5156,7.3366 15.7779,7.0744 0.9585,-0.9586 276.421,-492.931 276.421,-493.6844 0,-0.4276 -10.2375,-7.1105 -22.75,-14.8509 -85.8087,-53.0824 -177.8834,-101.6441 -270.0637,-142.4358 -11.1725,-4.9441 -20.4246,-8.8304 -20.5602,-8.6363 -0.1356,0.1942 -1.0152,8.2651 -1.9546,17.9354 -14.595,150.2329 -99.9785,285.0145 -230.2722,363.4952 -108.6063,65.4174 -239.8352,84.6336 -364.4035,53.3606 -133.7824,-33.5863 -248.5084,-126.1267 -310.9128,-250.7888 -55.0536,-109.9777 -65.2895,-239.8156 -28.1497,-357.0647 l 3.9219,-12.3813 -25.6776,0.6907 c -370.4211,9.9638 -730.6547,109.3277 -1051.6776,290.0861 -36.9728,20.8182 -113.6675,67.5287 -120.2846,73.2586 -2.0118,1.742 0.5702,6.4069 237.3109,428.7397 131.6398,234.8382 239.7931,427.128 240.3409,427.3106 0.5478,0.1826 6.9666,-1.5071 14.2642,-3.7548 78.7093,-24.2433 160.0593,-28.0956 240.3032,-11.3796 123.5317,25.7335 233.5522,101.1359 303.0155,207.6714 53.0252,81.3244 79.6309,175.2694 77.2226,272.6739 -1.244,50.3166 -8.5492,93.2826 -23.633,139 -13.1729,39.9254 -32.8587,80.2777 -56.3465,115.5 -22.4607,33.682 -51.3804,67.0144 -79.522,91.6559 -6.4192,5.6208 -12.2767,10.7566 -13.0167,11.413 -1.0994,0.9752 24.0312,46.4823 137.4031,248.8123 76.3117,136.1903 139.0172,247.6074 139.3455,247.5935 0.3283,-0.014 42.2219,-74.3655 93.0969,-165.2259 z m -15.7422,-1066.2595 c -53.032,-6.7346 -103.282,-31.0479 -140.6258,-68.0416 -31.6801,-31.383 -53.6164,-69.4228 -64.6738,-112.1508 -9.7817,-37.7987 -9.7817,-82.7951 0,-120.5938 11.1086,-42.9259 32.8009,-80.4719 64.671,-111.9351 19.3619,-19.1148 39.343,-33.2988 63.8708,-45.3401 35.749,-17.55 71.83,-25.2507 113,-24.1171 37.3981,1.0297 67.8302,8.5421 100.4653,24.8005 48.0521,23.9391 86.3289,62.1232 109.4777,109.2126 14.9184,30.3471 22.1207,57.1223 24.7274,91.9261 3.2016,42.7474 -6.5664,89.3014 -26.8046,127.75 -24.1579,45.8951 -60.7789,81.6593 -107.4005,104.8879 -22.1635,11.0427 -42.9527,17.7845 -68.4653,22.2027 -15.88,2.7501 -51.8025,3.4864 -68.2422,1.3987 z m -622.7578,-391.08 c -35.4352,-2.701 -61.3026,-7.682 -90.7197,-17.4688 -76.4541,-25.4357 -144.4599,-80.2706 -185.7126,-149.7452 -24.1007,-40.5884 -38.7925,-82.7811 -45.7466,-131.377 -2.58,-18.0291 -2.5723,-70.9941 0.013,-89.3183 9.1811,-65.0748 32.6621,-119.656 73.9277,-171.8435 9.903,-12.5241 37.9508,-40.6008 50.7382,-50.7904 34.0141,-27.1041 68.9569,-46.0618 109.5,-59.4074 56.3302,-18.5422 118.6603,-22.0015 177,-9.8235 94.6267,19.7527 176.2003,78.1723 225.6793,161.622 48.6988,82.134 60.7146,181.3311 33.2182,274.2344 -11.6241,39.2748 -34.9847,83.3405 -62.0299,117.0084 -10.7307,13.3585 -34.2989,37.1955 -47.7425,48.287 -51.5021,42.4913 -113.7614,69.0129 -180.1251,76.7309 -12.7726,1.4854 -48.1785,2.64 -58,1.8914 z M 986.18436,1770.4868 c 99.31324,-73.8102 201.93024,-139.1943 310.12344,-197.6003 32.5682,-17.5813 109.062,-55.6743 141.5,-70.4654 390.3066,-177.9721 811.259,-254.4964 1232.5,-224.0543 263.5199,19.044 514.4312,76.3635 756.6273,172.8478 204.2423,81.3646 394.1831,187.4886 571.6832,319.4117 10.8177,8.0399 19.1776,13.6025 19.6743,13.091 1.2511,-1.2883 223.1984,-397.554 222.8269,-397.8362 -11.0737,-8.4106 -72.3352,-50.5067 -106.3117,-73.0525 -86.1799,-57.1863 -171.573,-107.6851 -265.5,-157.0085 -26.6846,-14.0128 -90.0435,-45.49 -91.5672,-45.4914 -0.5869,-5e-4 -37.8875,65.7115 -82.8901,146.0267 -45.0026,80.3151 -82.1656,146.2393 -82.5845,146.4982 -0.4189,0.2589 -13.5184,-5.6557 -29.1099,-13.1437 -29.9058,-14.3624 -72.3942,-33.7963 -97.1292,-44.4263 -10.3094,-4.4304 -14.6258,-6.7566 -14.2679,-7.6891 0.2821,-0.7353 36.9711,-66.3881 81.5309,-145.8949 44.5598,-79.5069 81.0179,-144.9145 81.0179,-145.3504 0,-1.4318 -62.8039,-26.4325 -110.5,-43.9875 -144.6278,-53.23108 -294.1082,-95.41778 -444.5,-125.44768 -32.346,-6.4588 -72.1252,-13.7958 -72.5376,-13.379 -0.1592,0.161 -14.9707,71.3927 -32.9143,158.29278 -17.9437,86.9 -32.7878,158.4826 -32.987,159.0725 -0.2385,0.7063 -11.9209,-0.873 -34.2116,-4.6249 -33.2788,-5.6014 -78.7748,-12.3254 -105.3495,-15.5701 -7.425,-0.9065 -13.6549,-1.7797 -13.8442,-1.9404 -0.1893,-0.1607 14.4127,-71.6804 32.4488,-158.93288 24.1226,-116.6956 32.4783,-158.8351 31.6025,-159.3763 -2.605,-1.61 -97.7096,-11.1145 -145.7071,-14.5616 -24.2763,-1.7435 -65.17,-4.0998 -97.5,-5.618 -36.7887,-1.7276 -154.9281,-2.3495 -198,-1.0424 -334.7299,10.158 -653.4944,72.5477 -963.5,188.57948 -55.1448,20.6402 -121.1567,47.7388 -120.7146,49.5548 0.157,0.6447 36.7446,66.2248 81.3058,145.7334 44.5612,79.5086 81.1078,144.9743 81.2146,145.4793 0.1068,0.505 -5.8808,3.6155 -13.3058,6.9122 -28.845,12.8072 -60.8744,27.7961 -92.9369,43.4922 -18.3903,9.0029 -33.7415,16.0255 -34.1138,15.6058 -0.3722,-0.4197 -37.4622,-66.4631 -82.4222,-146.7631 -44.9599,-80.3 -81.8723,-146.1385 -82.0274,-146.3079 -0.1552,-0.1693 -12.8372,5.9728 -28.1824,13.6492 -99.2455,49.6472 -203.23243,109.8555 -299.81733,173.5936 -30.5922,20.1884 -105.8036,71.8211 -112.3112,77.1017 -0.2473,0.2007 211.1968,378.1749 220.5285,394.2134 1.36,2.3375 2.712,4.25 3.0044,4.25 0.2923,0 8.9121,-6.2285 19.15489,-13.841 z"
       id="path992" />
  </g>
</svg>
